<svg version="1" xmlns="http://www.w3.org/2000/svg" width="933.333" height="933.333" viewBox="0 0 700.000000 700.000000"><path d="M22 75.4V101l21.5.1c11.8.1 21.8.2 22.3.3.4.1 2.5.5 4.6 1 13.9 2.7 24.1 13.7 27.5 29.4.8 3.8 1.1 63.3 1.1 217 0 232.3.4 217.6-6 230.2-4 7.9-9 13.3-14.8 16.2-5 2.4-9.4 2.7-42.4 2.8H22v51.1l163.8-.4c90-.2 165.3-.7 167.2-1 1.9-.4 6-.9 9-1.2 11.2-1.3 25.4-3.3 28-4 .8-.3 3.3-.7 5.5-1 2.2-.4 4.8-.8 5.7-1.1.9-.3 2.5-.6 3.5-.8 1-.2 3.8-.9 6.3-1.6 2.5-.7 5.4-1.4 6.5-1.6 1.2-.2 4.5-1.2 7.5-2.2 3-1.1 5.7-2 6-2 2.6-.4 24.5-8.7 24.8-9.4.2-.4 1.1-.8 1.9-.8 2.7 0 34.9-17.3 38-20.3.1-.1-.5-4.3-1.2-9.2-1.8-11.8-1.7-33.7.1-45 5.5-33.7 21-54.1 51-67.3 7.7-3.4 22.4-7.9 28.2-8.6 11.5-1.5 17.4-2 22.9-2 4.7 0 6.4-.4 6.8-1.6 8.8-22.4 14.8-45.4 20-76.6.4-2.4 1.4-10.5 2-16.9 2.5-22.9 2.5-69.8 0-88.5-.2-1.4-.6-4.8-.9-7.5-.9-6.7-3.4-21.4-5-29-6.4-30-18.4-59.6-33.4-82.5-41.5-63.4-118.7-104.2-215.7-114-6-.6-12.6-1.4-14.5-1.7-1.9-.4-77.9-.8-168.7-1L22 49.9v25.5zm283.5 33.1c16.2.9 18.1 1.1 28.2 3.5 12.9 3 17.7 4.7 29.2 10.2 25.3 12.1 44.6 31.1 58.8 57.8 3.7 6.8 11.3 24.7 11.7 27.4.1.6.4 1.5.8 2.1.9 1.5 8.5 32.4 9.2 37.5.3 2.5.8 5.8 1.1 7.5 3.8 23.1 5 41.4 4.9 77 0 24.7-.5 37.5-1.8 52.1-1 10.2-1.8 17-2.1 18.4-.2.8-.7 3.8-1 6.6-3.4 31.9-17.4 78-31.7 104.6-25.5 47.5-59 72-104.3 76.3-5.5.6-35.2 1-41.2.6-1-.1-1.2-52.9-1.2-241.1V108.1l6.7-.3c7.7-.3 15.7-.2 32.7.7z"/><path d="M595.7 495.6c-.1.1-4 .5-8.5.8-4.6.4-11.7 1.6-15.8 2.6-37.5 9.6-52.8 31-51.9 73 .2 8 .6 15.8.9 17.5 3 14.3 6.3 22.4 12.6 30.3 6.6 8.4 20.1 16.7 33.7 20.7 4.7 1.4 6.4 1.7 14.8 3.3 7.7 1.4 33.6.7 41.2-1.1 42.1-10 58.3-31.7 56.9-76.8-.7-23-5.4-36.7-16.6-48-10.8-10.9-30.8-19.4-50.5-21.4-6.3-.7-16.4-1.2-16.8-.9z"/></svg>